STARTFONT 2.1
FONT -nil-ariafont-Medium-R-Normal--16-120-96-96-M-100-iso10646-1
SIZE 12 96 96
FONTBOUNDINGBOX 7 13 0 -3
STARTPROPERTIES 17
POINT_SIZE 120
PIXEL_SIZE 16
RESOLUTION_X 96
RESOLUTION_Y 96
FONT_ASCENT 11
FONT_DESCENT 3
AVERAGE_WIDTH 100
SPACING "M"
_GBDFED_INFO "Edited with gbdfed 1.6."
FOUNDRY "nil"
FAMILY_NAME "ariafont"
WEIGHT_NAME "Medium"
SLANT "R"
SETWIDTH_NAME "Normal"
ADD_STYLE_NAME ""
CHARSET_REGISTRY "iso10646"
CHARSET_ENCODING "1"
ENDPROPERTIES
CHARS 165
STARTCHAR <control>
ENCODING 0
SWIDTH 562 0
DWIDTH 9 0
BBX 7 11 0 -2
BITMAP
AA
00
82
00
82
00
82
00
82
00
AA
ENDCHAR
STARTCHAR SPACE
ENCODING 32
SWIDTH 562 0
DWIDTH 9 0
BBX 0 0 0 0
BITMAP
ENDCHAR
STARTCHAR EXCLAMATION MARK
ENCODING 33
SWIDTH 562 0
DWIDTH 9 0
BBX 1 9 3 0
BITMAP
80
80
80
80
80
80
00
80
80
ENDCHAR
STARTCHAR QUOTATION MARK
ENCODING 34
SWIDTH 562 0
DWIDTH 9 0
BBX 3 3 2 6
BITMAP
A0
A0
A0
ENDCHAR
STARTCHAR NUMBER SIGN
ENCODING 35
SWIDTH 562 0
DWIDTH 9 0
BBX 5 6 1 0
BITMAP
50
F8
50
50
F8
50
ENDCHAR
STARTCHAR DOLLAR SIGN
ENCODING 36
SWIDTH 562 0
DWIDTH 9 0
BBX 5 9 1 0
BITMAP
20
70
A8
A0
70
28
A8
70
20
ENDCHAR
STARTCHAR PERCENT SIGN
ENCODING 37
SWIDTH 562 0
DWIDTH 9 0
BBX 5 9 1 0
BITMAP
48
A8
50
10
20
40
50
A8
90
ENDCHAR
STARTCHAR AMPERSAND
ENCODING 38
SWIDTH 562 0
DWIDTH 9 0
BBX 5 9 1 0
BITMAP
60
90
90
60
40
68
90
90
68
ENDCHAR
STARTCHAR APOSTROPHE
ENCODING 39
SWIDTH 562 0
DWIDTH 9 0
BBX 1 3 3 6
BITMAP
80
80
80
ENDCHAR
STARTCHAR LEFT PARENTHESIS
ENCODING 40
SWIDTH 562 0
DWIDTH 9 0
BBX 3 11 2 -1
BITMAP
20
40
40
80
80
80
80
80
40
40
20
ENDCHAR
STARTCHAR RIGHT PARENTHESIS
ENCODING 41
SWIDTH 562 0
DWIDTH 9 0
BBX 3 11 3 -1
BITMAP
80
40
40
20
20
20
20
20
40
40
80
ENDCHAR
STARTCHAR ASTERISK
ENCODING 42
SWIDTH 562 0
DWIDTH 9 0
BBX 5 5 1 2
BITMAP
20
A8
70
A8
20
ENDCHAR
STARTCHAR PLUS SIGN
ENCODING 43
SWIDTH 562 0
DWIDTH 9 0
BBX 5 5 1 2
BITMAP
20
20
F8
20
20
ENDCHAR
STARTCHAR COMMA
ENCODING 44
SWIDTH 562 0
DWIDTH 9 0
BBX 2 4 2 -2
BITMAP
C0
C0
40
80
ENDCHAR
STARTCHAR HYPHEN-MINUS
ENCODING 45
SWIDTH 562 0
DWIDTH 9 0
BBX 5 1 1 3
BITMAP
F8
ENDCHAR
STARTCHAR FULL STOP
ENCODING 46
SWIDTH 562 0
DWIDTH 9 0
BBX 2 2 2 0
BITMAP
C0
C0
ENDCHAR
STARTCHAR SOLIDUS
ENCODING 47
SWIDTH 562 0
DWIDTH 9 0
BBX 5 10 1 -1
BITMAP
08
08
10
10
20
20
40
40
80
80
ENDCHAR
STARTCHAR DIGIT ZERO
ENCODING 48
SWIDTH 562 0
DWIDTH 9 0
BBX 5 9 1 0
BITMAP
70
88
88
98
A8
C8
88
88
70
ENDCHAR
STARTCHAR DIGIT ONE
ENCODING 49
SWIDTH 562 0
DWIDTH 9 0
BBX 5 9 1 0
BITMAP
20
60
A0
20
20
20
20
20
F8
ENDCHAR
STARTCHAR DIGIT TWO
ENCODING 50
SWIDTH 562 0
DWIDTH 9 0
BBX 5 9 1 0
BITMAP
70
88
88
08
30
40
80
80
F8
ENDCHAR
STARTCHAR DIGIT THREE
ENCODING 51
SWIDTH 562 0
DWIDTH 9 0
BBX 5 9 1 0
BITMAP
70
88
88
08
30
08
88
88
70
ENDCHAR
STARTCHAR DIGIT FOUR
ENCODING 52
SWIDTH 562 0
DWIDTH 9 0
BBX 5 9 1 0
BITMAP
10
30
50
90
F8
10
10
10
10
ENDCHAR
STARTCHAR DIGIT FIVE
ENCODING 53
SWIDTH 562 0
DWIDTH 9 0
BBX 5 9 1 0
BITMAP
F8
80
80
F0
08
08
08
88
70
ENDCHAR
STARTCHAR DIGIT SIX
ENCODING 54
SWIDTH 562 0
DWIDTH 9 0
BBX 5 9 1 0
BITMAP
70
88
80
F0
88
88
88
88
70
ENDCHAR
STARTCHAR DIGIT SEVEN
ENCODING 55
SWIDTH 562 0
DWIDTH 9 0
BBX 5 9 1 0
BITMAP
F8
08
08
10
10
10
20
20
20
ENDCHAR
STARTCHAR DIGIT EIGHT
ENCODING 56
SWIDTH 562 0
DWIDTH 9 0
BBX 5 9 1 0
BITMAP
70
88
88
88
70
88
88
88
70
ENDCHAR
STARTCHAR DIGIT NINE
ENCODING 57
SWIDTH 562 0
DWIDTH 9 0
BBX 5 9 1 0
BITMAP
70
88
88
88
78
08
08
88
70
ENDCHAR
STARTCHAR COLON
ENCODING 58
SWIDTH 562 0
DWIDTH 9 0
BBX 2 5 2 0
BITMAP
C0
C0
00
C0
C0
ENDCHAR
STARTCHAR SEMICOLON
ENCODING 59
SWIDTH 562 0
DWIDTH 9 0
BBX 2 7 2 -2
BITMAP
C0
C0
00
C0
C0
40
80
ENDCHAR
STARTCHAR LESS-THAN SIGN
ENCODING 60
SWIDTH 562 0
DWIDTH 9 0
BBX 5 9 1 -1
BITMAP
08
10
20
40
80
40
20
10
08
ENDCHAR
STARTCHAR EQUALS SIGN
ENCODING 61
SWIDTH 562 0
DWIDTH 9 0
BBX 5 5 1 1
BITMAP
F8
00
00
00
F8
ENDCHAR
STARTCHAR GREATER-THAN SIGN
ENCODING 62
SWIDTH 562 0
DWIDTH 9 0
BBX 5 9 1 -1
BITMAP
80
40
20
10
08
10
20
40
80
ENDCHAR
STARTCHAR QUESTION MARK
ENCODING 63
SWIDTH 562 0
DWIDTH 9 0
BBX 5 9 1 0
BITMAP
70
88
88
08
30
20
00
20
20
ENDCHAR
STARTCHAR COMMERCIAL AT
ENCODING 64
SWIDTH 562 0
DWIDTH 9 0
BBX 5 9 1 0
BITMAP
70
88
88
B8
A8
A8
B0
80
78
ENDCHAR
STARTCHAR LATIN CAPITAL LETTER A
ENCODING 65
SWIDTH 562 0
DWIDTH 9 0
BBX 5 9 1 0
BITMAP
70
88
88
88
F8
88
88
88
88
ENDCHAR
STARTCHAR LATIN CAPITAL LETTER B
ENCODING 66
SWIDTH 562 0
DWIDTH 9 0
BBX 5 9 1 0
BITMAP
F0
88
88
88
F0
88
88
88
F0
ENDCHAR
STARTCHAR LATIN CAPITAL LETTER C
ENCODING 67
SWIDTH 562 0
DWIDTH 9 0
BBX 5 9 1 0
BITMAP
70
88
88
80
80
80
88
88
70
ENDCHAR
STARTCHAR LATIN CAPITAL LETTER D
ENCODING 68
SWIDTH 562 0
DWIDTH 9 0
BBX 5 9 1 0
BITMAP
E0
90
88
88
88
88
88
90
E0
ENDCHAR
STARTCHAR LATIN CAPITAL LETTER E
ENCODING 69
SWIDTH 562 0
DWIDTH 9 0
BBX 5 9 1 0
BITMAP
F8
80
80
80
F8
80
80
80
F8
ENDCHAR
STARTCHAR LATIN CAPITAL LETTER F
ENCODING 70
SWIDTH 562 0
DWIDTH 9 0
BBX 5 9 1 0
BITMAP
F8
80
80
80
F8
80
80
80
80
ENDCHAR
STARTCHAR LATIN CAPITAL LETTER G
ENCODING 71
SWIDTH 562 0
DWIDTH 9 0
BBX 5 9 1 0
BITMAP
70
88
80
80
B8
88
88
98
68
ENDCHAR
STARTCHAR LATIN CAPITAL LETTER H
ENCODING 72
SWIDTH 562 0
DWIDTH 9 0
BBX 5 9 1 0
BITMAP
88
88
88
88
F8
88
88
88
88
ENDCHAR
STARTCHAR LATIN CAPITAL LETTER I
ENCODING 73
SWIDTH 562 0
DWIDTH 9 0
BBX 5 9 1 0
BITMAP
F8
20
20
20
20
20
20
20
F8
ENDCHAR
STARTCHAR LATIN CAPITAL LETTER J
ENCODING 74
SWIDTH 562 0
DWIDTH 9 0
BBX 5 9 1 0
BITMAP
08
08
08
08
08
08
88
88
70
ENDCHAR
STARTCHAR LATIN CAPITAL LETTER K
ENCODING 75
SWIDTH 562 0
DWIDTH 9 0
BBX 5 9 1 0
BITMAP
88
90
A0
C0
80
C0
A0
90
88
ENDCHAR
STARTCHAR LATIN CAPITAL LETTER L
ENCODING 76
SWIDTH 562 0
DWIDTH 9 0
BBX 5 9 1 0
BITMAP
80
80
80
80
80
80
80
80
F8
ENDCHAR
STARTCHAR LATIN CAPITAL LETTER M
ENCODING 77
SWIDTH 562 0
DWIDTH 9 0
BBX 5 9 1 0
BITMAP
88
88
D8
A8
A8
88
88
88
88
ENDCHAR
STARTCHAR LATIN CAPITAL LETTER N
ENCODING 78
SWIDTH 562 0
DWIDTH 9 0
BBX 5 9 1 0
BITMAP
88
C8
C8
A8
A8
98
98
88
88
ENDCHAR
STARTCHAR LATIN CAPITAL LETTER O
ENCODING 79
SWIDTH 562 0
DWIDTH 9 0
BBX 5 9 1 0
BITMAP
70
88
88
88
88
88
88
88
70
ENDCHAR
STARTCHAR LATIN CAPITAL LETTER P
ENCODING 80
SWIDTH 562 0
DWIDTH 9 0
BBX 5 9 1 0
BITMAP
F0
88
88
88
F0
80
80
80
80
ENDCHAR
STARTCHAR LATIN CAPITAL LETTER Q
ENCODING 81
SWIDTH 562 0
DWIDTH 9 0
BBX 5 10 1 -1
BITMAP
70
88
88
88
88
A8
A8
90
68
08
ENDCHAR
STARTCHAR LATIN CAPITAL LETTER R
ENCODING 82
SWIDTH 562 0
DWIDTH 9 0
BBX 5 9 1 0
BITMAP
F0
88
88
88
F0
A0
90
88
88
ENDCHAR
STARTCHAR LATIN CAPITAL LETTER S
ENCODING 83
SWIDTH 562 0
DWIDTH 9 0
BBX 5 9 1 0
BITMAP
70
88
80
80
70
08
08
88
70
ENDCHAR
STARTCHAR LATIN CAPITAL LETTER T
ENCODING 84
SWIDTH 562 0
DWIDTH 9 0
BBX 5 9 1 0
BITMAP
F8
20
20
20
20
20
20
20
20
ENDCHAR
STARTCHAR LATIN CAPITAL LETTER U
ENCODING 85
SWIDTH 562 0
DWIDTH 9 0
BBX 5 9 1 0
BITMAP
88
88
88
88
88
88
88
88
70
ENDCHAR
STARTCHAR LATIN CAPITAL LETTER V
ENCODING 86
SWIDTH 562 0
DWIDTH 9 0
BBX 5 9 1 0
BITMAP
88
88
88
50
50
50
50
20
20
ENDCHAR
STARTCHAR LATIN CAPITAL LETTER W
ENCODING 87
SWIDTH 562 0
DWIDTH 9 0
BBX 5 9 1 0
BITMAP
88
88
88
A8
A8
A8
50
50
50
ENDCHAR
STARTCHAR LATIN CAPITAL LETTER X
ENCODING 88
SWIDTH 562 0
DWIDTH 9 0
BBX 5 9 1 0
BITMAP
88
88
88
50
20
50
88
88
88
ENDCHAR
STARTCHAR LATIN CAPITAL LETTER Y
ENCODING 89
SWIDTH 562 0
DWIDTH 9 0
BBX 5 9 1 0
BITMAP
88
88
88
50
50
20
20
20
20
ENDCHAR
STARTCHAR LATIN CAPITAL LETTER Z
ENCODING 90
SWIDTH 562 0
DWIDTH 9 0
BBX 5 9 1 0
BITMAP
F8
08
08
10
20
40
80
80
F8
ENDCHAR
STARTCHAR LEFT SQUARE BRACKET
ENCODING 91
SWIDTH 562 0
DWIDTH 9 0
BBX 3 11 2 -1
BITMAP
E0
80
80
80
80
80
80
80
80
80
E0
ENDCHAR
STARTCHAR REVERSE SOLIDUS
ENCODING 92
SWIDTH 562 0
DWIDTH 9 0
BBX 5 10 1 -1
BITMAP
80
80
40
40
20
20
10
10
08
08
ENDCHAR
STARTCHAR RIGHT SQUARE BRACKET
ENCODING 93
SWIDTH 562 0
DWIDTH 9 0
BBX 3 11 2 -1
BITMAP
E0
20
20
20
20
20
20
20
20
20
E0
ENDCHAR
STARTCHAR CIRCUMFLEX ACCENT
ENCODING 94
SWIDTH 562 0
DWIDTH 9 0
BBX 5 3 1 6
BITMAP
20
50
88
ENDCHAR
STARTCHAR LOW LINE
ENCODING 95
SWIDTH 562 0
DWIDTH 9 0
BBX 5 1 1 -1
BITMAP
F8
ENDCHAR
STARTCHAR GRAVE ACCENT
ENCODING 96
SWIDTH 562 0
DWIDTH 9 0
BBX 3 3 2 6
BITMAP
80
40
20
ENDCHAR
STARTCHAR LATIN SMALL LETTER A
ENCODING 97
SWIDTH 562 0
DWIDTH 9 0
BBX 5 6 1 0
BITMAP
70
88
78
88
98
68
ENDCHAR
STARTCHAR LATIN SMALL LETTER B
ENCODING 98
SWIDTH 562 0
DWIDTH 9 0
BBX 5 9 1 0
BITMAP
80
80
80
F0
88
88
88
88
70
ENDCHAR
STARTCHAR LATIN SMALL LETTER C
ENCODING 99
SWIDTH 562 0
DWIDTH 9 0
BBX 5 6 1 0
BITMAP
70
88
80
80
88
70
ENDCHAR
STARTCHAR LATIN SMALL LETTER D
ENCODING 100
SWIDTH 562 0
DWIDTH 9 0
BBX 5 9 1 0
BITMAP
08
08
08
78
88
88
88
88
70
ENDCHAR
STARTCHAR LATIN SMALL LETTER E
ENCODING 101
SWIDTH 562 0
DWIDTH 9 0
BBX 5 6 1 0
BITMAP
70
88
F8
80
88
70
ENDCHAR
STARTCHAR LATIN SMALL LETTER F
ENCODING 102
SWIDTH 562 0
DWIDTH 9 0
BBX 5 9 1 0
BITMAP
30
48
40
F0
40
40
40
40
40
ENDCHAR
STARTCHAR LATIN SMALL LETTER G
ENCODING 103
SWIDTH 562 0
DWIDTH 9 0
BBX 5 9 1 -3
BITMAP
78
88
88
88
98
68
08
88
70
ENDCHAR
STARTCHAR LATIN SMALL LETTER H
ENCODING 104
SWIDTH 562 0
DWIDTH 9 0
BBX 5 9 1 0
BITMAP
80
80
80
B0
C8
88
88
88
88
ENDCHAR
STARTCHAR LATIN SMALL LETTER I
ENCODING 105
SWIDTH 562 0
DWIDTH 9 0
BBX 5 9 1 0
BITMAP
20
20
00
E0
20
20
20
20
F8
ENDCHAR
STARTCHAR LATIN SMALL LETTER J
ENCODING 106
SWIDTH 562 0
DWIDTH 9 0
BBX 4 11 1 -2
BITMAP
10
10
00
70
10
10
10
10
10
90
60
ENDCHAR
STARTCHAR LATIN SMALL LETTER K
ENCODING 107
SWIDTH 562 0
DWIDTH 9 0
BBX 5 9 1 0
BITMAP
80
80
80
88
90
A0
E0
90
88
ENDCHAR
STARTCHAR LATIN SMALL LETTER L
ENCODING 108
SWIDTH 562 0
DWIDTH 9 0
BBX 5 9 1 0
BITMAP
E0
20
20
20
20
20
20
20
18
ENDCHAR
STARTCHAR LATIN SMALL LETTER M
ENCODING 109
SWIDTH 562 0
DWIDTH 9 0
BBX 5 6 1 0
BITMAP
F0
A8
A8
A8
A8
A8
ENDCHAR
STARTCHAR LATIN SMALL LETTER N
ENCODING 110
SWIDTH 562 0
DWIDTH 9 0
BBX 5 6 1 0
BITMAP
B0
C8
88
88
88
88
ENDCHAR
STARTCHAR LATIN SMALL LETTER O
ENCODING 111
SWIDTH 562 0
DWIDTH 9 0
BBX 5 6 1 0
BITMAP
70
88
88
88
88
70
ENDCHAR
STARTCHAR LATIN SMALL LETTER P
ENCODING 112
SWIDTH 562 0
DWIDTH 9 0
BBX 5 9 1 -3
BITMAP
70
88
88
88
88
F0
80
80
80
ENDCHAR
STARTCHAR LATIN SMALL LETTER Q
ENCODING 113
SWIDTH 562 0
DWIDTH 9 0
BBX 5 9 1 -3
BITMAP
70
88
88
88
88
78
08
08
08
ENDCHAR
STARTCHAR LATIN SMALL LETTER R
ENCODING 114
SWIDTH 562 0
DWIDTH 9 0
BBX 5 6 1 0
BITMAP
B0
C8
88
80
80
80
ENDCHAR
STARTCHAR LATIN SMALL LETTER S
ENCODING 115
SWIDTH 562 0
DWIDTH 9 0
BBX 5 6 1 0
BITMAP
70
88
70
08
88
70
ENDCHAR
STARTCHAR LATIN SMALL LETTER T
ENCODING 116
SWIDTH 562 0
DWIDTH 9 0
BBX 5 9 1 0
BITMAP
40
40
40
F0
40
40
40
48
30
ENDCHAR
STARTCHAR LATIN SMALL LETTER U
ENCODING 117
SWIDTH 562 0
DWIDTH 9 0
BBX 5 6 1 0
BITMAP
88
88
88
88
98
68
ENDCHAR
STARTCHAR LATIN SMALL LETTER V
ENCODING 118
SWIDTH 562 0
DWIDTH 9 0
BBX 5 6 1 0
BITMAP
88
88
50
50
20
20
ENDCHAR
STARTCHAR LATIN SMALL LETTER W
ENCODING 119
SWIDTH 562 0
DWIDTH 9 0
BBX 5 6 1 0
BITMAP
88
88
A8
A8
50
50
ENDCHAR
STARTCHAR LATIN SMALL LETTER X
ENCODING 120
SWIDTH 562 0
DWIDTH 9 0
BBX 5 6 1 0
BITMAP
88
50
20
20
50
88
ENDCHAR
STARTCHAR LATIN SMALL LETTER Y
ENCODING 121
SWIDTH 562 0
DWIDTH 9 0
BBX 5 9 1 -3
BITMAP
88
88
88
88
98
68
08
88
70
ENDCHAR
STARTCHAR LATIN SMALL LETTER Z
ENCODING 122
SWIDTH 562 0
DWIDTH 9 0
BBX 5 6 1 0
BITMAP
F8
10
20
40
80
F8
ENDCHAR
STARTCHAR LEFT CURLY BRACKET
ENCODING 123
SWIDTH 562 0
DWIDTH 9 0
BBX 5 11 1 -1
BITMAP
18
20
20
20
10
E0
10
20
20
20
18
ENDCHAR
STARTCHAR VERTICAL LINE
ENCODING 124
SWIDTH 562 0
DWIDTH 9 0
BBX 1 10 3 -1
BITMAP
80
80
80
80
80
80
80
80
80
80
ENDCHAR
STARTCHAR RIGHT CURLY BRACKET
ENCODING 125
SWIDTH 562 0
DWIDTH 9 0
BBX 5 11 1 -1
BITMAP
C0
20
20
20
40
38
40
20
20
20
C0
ENDCHAR
STARTCHAR TILDE
ENCODING 126
SWIDTH 562 0
DWIDTH 9 0
BBX 5 3 1 2
BITMAP
40
A8
10
ENDCHAR
STARTCHAR INVERTED EXCLAMATION MARK
ENCODING 161
SWIDTH 562 0
DWIDTH 9 0
BBX 4 9 0 0
BITMAP
10
10
00
10
10
10
10
10
10
ENDCHAR
STARTCHAR CENT SIGN
ENCODING 162
SWIDTH 562 0
DWIDTH 9 0
BBX 6 8 0 -1
BITMAP
10
38
54
50
50
54
38
10
ENDCHAR
STARTCHAR POUND SIGN
ENCODING 163
SWIDTH 562 0
DWIDTH 9 0
BBX 6 9 0 0
BITMAP
18
24
20
20
78
20
20
64
98
ENDCHAR
STARTCHAR CURRENCY SIGN
ENCODING 164
SWIDTH 562 0
DWIDTH 9 0
BBX 5 7 1 1
BITMAP
88
50
70
50
70
50
88
ENDCHAR
STARTCHAR YEN SIGN
ENCODING 165
SWIDTH 562 0
DWIDTH 9 0
BBX 5 9 1 0
BITMAP
88
88
88
50
F8
20
F8
20
20
ENDCHAR
STARTCHAR BROKEN BAR
ENCODING 166
SWIDTH 562 0
DWIDTH 9 0
BBX 4 10 0 -1
BITMAP
10
10
10
10
00
00
10
10
10
10
ENDCHAR
STARTCHAR SECTION SIGN
ENCODING 167
SWIDTH 562 0
DWIDTH 9 0
BBX 5 10 1 -1
BITMAP
70
88
40
A0
90
48
28
90
88
70
ENDCHAR
STARTCHAR DIAERESIS
ENCODING 168
SWIDTH 562 0
DWIDTH 9 0
BBX 3 1 2 7
BITMAP
A0
ENDCHAR
STARTCHAR COPYRIGHT SIGN
ENCODING 169
SWIDTH 562 0
DWIDTH 9 0
BBX 6 9 1 0
BITMAP
78
84
94
A4
A4
A4
94
84
78
ENDCHAR
STARTCHAR FEMININE ORDINAL INDICATOR
ENCODING 170
SWIDTH 562 0
DWIDTH 9 0
BBX 4 7 2 2
BITMAP
60
90
70
90
70
00
F0
ENDCHAR
STARTCHAR LEFT-POINTING DOUBLE ANGLE QUOTATION MARK
ENCODING 171
SWIDTH 562 0
DWIDTH 9 0
BBX 5 5 1 2
BITMAP
28
50
A0
50
28
ENDCHAR
STARTCHAR NOT SIGN
ENCODING 172
SWIDTH 562 0
DWIDTH 9 0
BBX 5 3 1 4
BITMAP
F8
08
08
ENDCHAR
STARTCHAR REGISTERED SIGN
ENCODING 174
SWIDTH 562 0
DWIDTH 9 0
BBX 6 9 1 0
BITMAP
78
84
B4
AC
AC
B4
AC
84
78
ENDCHAR
STARTCHAR MACRON
ENCODING 175
SWIDTH 562 0
DWIDTH 9 0
BBX 5 1 1 8
BITMAP
F8
ENDCHAR
STARTCHAR DEGREE SIGN
ENCODING 176
SWIDTH 562 0
DWIDTH 9 0
BBX 5 5 1 5
BITMAP
70
88
88
88
70
ENDCHAR
STARTCHAR PLUS-MINUS SIGN
ENCODING 177
SWIDTH 562 0
DWIDTH 9 0
BBX 5 7 1 0
BITMAP
20
20
F8
20
20
00
F8
ENDCHAR
STARTCHAR SUPERSCRIPT TWO
ENCODING 178
SWIDTH 562 0
DWIDTH 9 0
BBX 3 5 2 4
BITMAP
C0
20
40
80
E0
ENDCHAR
STARTCHAR SUPERSCRIPT THREE
ENCODING 179
SWIDTH 562 0
DWIDTH 9 0
BBX 3 5 2 4
BITMAP
C0
20
40
20
C0
ENDCHAR
STARTCHAR ACUTE ACCENT
ENCODING 180
SWIDTH 562 0
DWIDTH 9 0
BBX 3 3 2 6
BITMAP
20
40
80
ENDCHAR
STARTCHAR MICRO SIGN
ENCODING 181
SWIDTH 562 0
DWIDTH 9 0
BBX 5 8 1 -2
BITMAP
90
90
90
90
90
E8
80
80
ENDCHAR
STARTCHAR PILCROW SIGN
ENCODING 182
SWIDTH 562 0
DWIDTH 9 0
BBX 5 10 1 -1
BITMAP
78
E8
E8
E8
68
28
28
28
28
38
ENDCHAR
STARTCHAR MIDDLE DOT
ENCODING 183
SWIDTH 562 0
DWIDTH 9 0
BBX 2 2 2 3
BITMAP
C0
C0
ENDCHAR
STARTCHAR CEDILLA
ENCODING 184
SWIDTH 562 0
DWIDTH 9 0
BBX 4 3 0 -2
BITMAP
20
10
20
ENDCHAR
STARTCHAR SUPERSCRIPT ONE
ENCODING 185
SWIDTH 562 0
DWIDTH 9 0
BBX 3 5 2 4
BITMAP
40
C0
40
40
E0
ENDCHAR
STARTCHAR MASCULINE ORDINAL INDICATOR
ENCODING 186
SWIDTH 562 0
DWIDTH 9 0
BBX 5 7 1 3
BITMAP
70
88
88
88
70
00
F8
ENDCHAR
STARTCHAR RIGHT-POINTING DOUBLE ANGLE QUOTATION MARK
ENCODING 187
SWIDTH 562 0
DWIDTH 9 0
BBX 5 5 1 2
BITMAP
A0
50
28
50
A0
ENDCHAR
STARTCHAR VULGAR FRACTION ONE QUARTER
ENCODING 188
SWIDTH 562 0
DWIDTH 9 0
BBX 6 10 0 -1
BITMAP
04
44
C8
48
50
14
2C
34
5C
44
ENDCHAR
STARTCHAR VULGAR FRACTION ONE HALF
ENCODING 189
SWIDTH 562 0
DWIDTH 9 0
BBX 6 10 0 -1
BITMAP
04
44
C8
48
50
18
24
28
50
5C
ENDCHAR
STARTCHAR VULGAR FRACTION THREE QUARTERS
ENCODING 190
SWIDTH 562 0
DWIDTH 9 0
BBX 6 10 0 -1
BITMAP
C4
24
68
28
D0
14
2C
34
5C
44
ENDCHAR
STARTCHAR INVERTED QUESTION MARK
ENCODING 191
SWIDTH 562 0
DWIDTH 9 0
BBX 5 9 1 0
BITMAP
20
20
00
20
60
80
88
88
70
ENDCHAR
STARTCHAR MULTIPLICATION SIGN
ENCODING 215
SWIDTH 562 0
DWIDTH 9 0
BBX 5 5 1 2
BITMAP
88
50
20
50
88
ENDCHAR
STARTCHAR LATIN SMALL LETTER SHARP S
ENCODING 223
SWIDTH 562 0
DWIDTH 9 0
BBX 5 9 1 0
BITMAP
70
88
88
98
B0
88
88
C8
B0
ENDCHAR
STARTCHAR LATIN SMALL LETTER A WITH GRAVE
ENCODING 224
SWIDTH 562 0
DWIDTH 9 0
BBX 5 9 1 0
BITMAP
40
20
00
70
88
78
88
98
68
ENDCHAR
STARTCHAR LATIN SMALL LETTER A WITH ACUTE
ENCODING 225
SWIDTH 562 0
DWIDTH 9 0
BBX 5 9 1 0
BITMAP
10
20
00
70
88
78
88
98
68
ENDCHAR
STARTCHAR LATIN SMALL LETTER A WITH CIRCUMFLEX
ENCODING 226
SWIDTH 562 0
DWIDTH 9 0
BBX 5 9 1 0
BITMAP
20
50
00
70
88
78
88
98
68
ENDCHAR
STARTCHAR LATIN SMALL LETTER A WITH TILDE
ENCODING 227
SWIDTH 562 0
DWIDTH 9 0
BBX 5 9 1 0
BITMAP
68
B0
00
70
88
78
88
98
68
ENDCHAR
STARTCHAR LATIN SMALL LETTER A WITH DIAERESIS
ENCODING 228
SWIDTH 562 0
DWIDTH 9 0
BBX 5 9 1 0
BITMAP
20
50
20
70
88
78
88
98
68
ENDCHAR
STARTCHAR LATIN SMALL LETTER A WITH RING ABOVE
ENCODING 229
SWIDTH 562 0
DWIDTH 9 0
BBX 5 6 1 0
BITMAP
70
88
78
88
98
68
ENDCHAR
STARTCHAR LATIN SMALL LETTER AE
ENCODING 230
SWIDTH 562 0
DWIDTH 9 0
BBX 5 6 1 0
BITMAP
70
A8
78
A0
A8
70
ENDCHAR
STARTCHAR LATIN SMALL LETTER C WITH CEDILLA
ENCODING 231
SWIDTH 562 0
DWIDTH 9 0
BBX 5 8 1 -2
BITMAP
70
88
80
80
88
70
40
80
ENDCHAR
STARTCHAR LATIN SMALL LETTER E WITH GRAVE
ENCODING 232
SWIDTH 562 0
DWIDTH 9 0
BBX 5 9 1 0
BITMAP
40
20
00
70
88
F8
80
88
70
ENDCHAR
STARTCHAR LATIN SMALL LETTER E WITH ACUTE
ENCODING 233
SWIDTH 562 0
DWIDTH 9 0
BBX 5 9 1 0
BITMAP
10
20
00
70
88
F8
80
88
70
ENDCHAR
STARTCHAR LATIN SMALL LETTER E WITH CIRCUMFLEX
ENCODING 234
SWIDTH 562 0
DWIDTH 9 0
BBX 5 9 1 0
BITMAP
20
50
00
70
88
F8
80
88
70
ENDCHAR
STARTCHAR LATIN SMALL LETTER E WITH DIAERESIS
ENCODING 235
SWIDTH 562 0
DWIDTH 9 0
BBX 5 8 1 0
BITMAP
50
00
70
88
F8
80
88
70
ENDCHAR
STARTCHAR LATIN SMALL LETTER I WITH GRAVE
ENCODING 236
SWIDTH 562 0
DWIDTH 9 0
BBX 5 9 1 0
BITMAP
40
20
00
E0
20
20
20
20
F8
ENDCHAR
STARTCHAR LATIN SMALL LETTER I WITH ACUTE
ENCODING 237
SWIDTH 562 0
DWIDTH 9 0
BBX 5 9 1 0
BITMAP
10
20
00
E0
20
20
20
20
F8
ENDCHAR
STARTCHAR LATIN SMALL LETTER I WITH CIRCUMFLEX
ENCODING 238
SWIDTH 562 0
DWIDTH 9 0
BBX 5 9 1 0
BITMAP
20
50
00
E0
20
20
20
20
F8
ENDCHAR
STARTCHAR LATIN SMALL LETTER I WITH DIAERESIS
ENCODING 239
SWIDTH 562 0
DWIDTH 9 0
BBX 5 8 1 0
BITMAP
50
00
E0
20
20
20
20
F8
ENDCHAR
STARTCHAR LATIN SMALL LETTER N WITH TILDE
ENCODING 241
SWIDTH 562 0
DWIDTH 9 0
BBX 6 9 0 0
BITMAP
34
58
00
58
64
44
44
44
44
ENDCHAR
STARTCHAR LATIN SMALL LETTER O WITH GRAVE
ENCODING 242
SWIDTH 562 0
DWIDTH 9 0
BBX 5 9 1 0
BITMAP
40
20
00
70
88
88
88
88
70
ENDCHAR
STARTCHAR LATIN SMALL LETTER O WITH ACUTE
ENCODING 243
SWIDTH 562 0
DWIDTH 9 0
BBX 5 9 1 0
BITMAP
10
20
00
70
88
88
88
88
70
ENDCHAR
STARTCHAR LATIN SMALL LETTER O WITH CIRCUMFLEX
ENCODING 244
SWIDTH 562 0
DWIDTH 9 0
BBX 5 9 1 0
BITMAP
20
50
00
70
88
88
88
88
70
ENDCHAR
STARTCHAR LATIN SMALL LETTER O WITH TILDE
ENCODING 245
SWIDTH 562 0
DWIDTH 9 0
BBX 5 9 1 0
BITMAP
68
B0
00
70
88
88
88
88
70
ENDCHAR
STARTCHAR LATIN SMALL LETTER O WITH DIAERESIS
ENCODING 246
SWIDTH 562 0
DWIDTH 9 0
BBX 5 8 1 0
BITMAP
50
00
70
88
88
88
88
70
ENDCHAR
STARTCHAR DIVISION SIGN
ENCODING 247
SWIDTH 562 0
DWIDTH 9 0
BBX 5 5 1 2
BITMAP
20
00
F8
00
20
ENDCHAR
STARTCHAR LATIN SMALL LETTER O WITH STROKE
ENCODING 248
SWIDTH 562 0
DWIDTH 9 0
BBX 5 6 1 0
BITMAP
78
98
A8
A8
C8
F0
ENDCHAR
STARTCHAR LATIN SMALL LETTER U WITH GRAVE
ENCODING 249
SWIDTH 562 0
DWIDTH 9 0
BBX 5 9 1 0
BITMAP
40
20
00
88
88
88
88
98
68
ENDCHAR
STARTCHAR LATIN SMALL LETTER U WITH ACUTE
ENCODING 250
SWIDTH 562 0
DWIDTH 9 0
BBX 5 9 1 0
BITMAP
10
20
00
88
88
88
88
98
68
ENDCHAR
STARTCHAR LATIN SMALL LETTER U WITH CIRCUMFLEX
ENCODING 251
SWIDTH 562 0
DWIDTH 9 0
BBX 5 9 1 0
BITMAP
20
50
00
88
88
88
88
98
68
ENDCHAR
STARTCHAR LATIN SMALL LETTER U WITH DIAERESIS
ENCODING 252
SWIDTH 562 0
DWIDTH 9 0
BBX 5 8 1 0
BITMAP
50
00
88
88
88
88
98
68
ENDCHAR
STARTCHAR char57504
ENCODING 57504
SWIDTH 562 0
DWIDTH 9 0
BBX 6 13 1 -3
BITMAP
80
88
9C
88
88
88
10
20
40
80
80
80
80
ENDCHAR
STARTCHAR char57505
ENCODING 57505
SWIDTH 562 0
DWIDTH 9 0
BBX 7 13 0 -3
BITMAP
40
40
40
40
40
78
00
22
32
3A
2E
26
22
ENDCHAR
STARTCHAR char57506
ENCODING 57506
SWIDTH 562 0
DWIDTH 9 0
BBX 7 10 0 0
BITMAP
38
44
44
FE
C6
C6
EE
EE
EE
FE
ENDCHAR
STARTCHAR char57520
ENCODING 57520
SWIDTH 562 0
DWIDTH 9 0
BBX 7 13 0 -3
BITMAP
80
C0
E0
F0
F8
FC
FE
FC
F8
F0
E0
C0
80
ENDCHAR
STARTCHAR char57521
ENCODING 57521
SWIDTH 562 0
DWIDTH 9 0
BBX 7 13 0 -3
BITMAP
80
40
20
10
08
04
02
04
08
10
20
40
80
ENDCHAR
STARTCHAR char57522
ENCODING 57522
SWIDTH 562 0
DWIDTH 9 0
BBX 7 13 0 -3
BITMAP
02
06
0E
1E
3E
7E
FE
7E
3E
1E
0E
06
02
ENDCHAR
STARTCHAR char57523
ENCODING 57523
SWIDTH 562 0
DWIDTH 9 0
BBX 7 13 0 -3
BITMAP
02
04
08
10
20
40
80
40
20
10
08
04
02
ENDCHAR
STARTCHAR char57524
ENCODING 57524
SWIDTH 562 0
DWIDTH 9 0
BBX 6 13 1 -3
BITMAP
FC
7C
3C
1C
0C
04
00
04
0C
1C
3C
7C
FC
ENDCHAR
STARTCHAR char57525
ENCODING 57525
SWIDTH 562 0
DWIDTH 9 0
BBX 6 13 0 -3
BITMAP
FC
F8
F0
E0
C0
80
00
80
C0
E0
F0
F8
FC
ENDCHAR
ENDFONT
